<svg width="15" height="16" viewBox="0 0 15 16" fill="none" xmlns="http://www.w3.org/2000/svg">
<g clip-path="url(#clip0_618_323)">
<path d="M7.5 0.333313C3.3579 0.333313 0 3.69121 0 7.83331C0 11.3505 2.4216 14.3019 5.6883 15.1125V10.1253H4.1418V7.83331H5.6883V6.84571C5.6883 4.29301 6.8436 3.10981 9.3498 3.10981C9.825 3.10981 10.6449 3.20311 10.9803 3.29611V5.37361C10.8033 5.35501 10.4958 5.34571 10.1139 5.34571C8.8842 5.34571 8.409 5.81161 8.409 7.02271V7.83331H10.8588L10.4379 10.1253H8.409V15.2784C12.1227 14.8299 15.0003 11.6679 15.0003 7.83331C15 3.69121 11.6421 0.333313 7.5 0.333313Z" fill="white"/>
</g>
<defs>
<clipPath id="clip0_618_323">
<rect width="15" height="15" fill="white" transform="translate(0 0.333313)"/>
</clipPath>
</defs>
</svg>
