<svg width="15" height="16" viewBox="0 0 15 16" fill="none" xmlns="http://www.w3.org/2000/svg">
<path d="M13.8896 0.666687H1.10742C0.495117 0.666687 0 1.15009 0 1.74774V14.5827C0 15.1804 0.495117 15.6667 1.10742 15.6667H13.8896C14.502 15.6667 15 15.1804 15 14.5856V1.74774C15 1.15009 14.502 0.666687 13.8896 0.666687ZM4.4502 13.4489H2.22363V6.28876H4.4502V13.4489ZM3.33691 5.31317C2.62207 5.31317 2.04492 4.73602 2.04492 4.02411C2.04492 3.31219 2.62207 2.73505 3.33691 2.73505C4.04883 2.73505 4.62598 3.31219 4.62598 4.02411C4.62598 4.73309 4.04883 5.31317 3.33691 5.31317ZM12.7822 13.4489H10.5586V9.96844C10.5586 9.13934 10.5439 8.07001 9.40137 8.07001C8.24414 8.07001 8.06836 8.97528 8.06836 9.90985V13.4489H5.84766V6.28876H7.98047V7.26727H8.00977C8.30566 6.70477 9.03223 6.11005 10.1133 6.11005C12.3662 6.11005 12.7822 7.59247 12.7822 9.5202V13.4489Z" fill="white"/>
</svg>
